<svg width="15" height="18" viewBox="0 0 15 18" fill="none" xmlns="http://www.w3.org/2000/svg">
<path d="M14.3646 6.13681C14.2589 6.21782 12.3924 7.25653 12.3924 9.56616C12.3924 12.2376 14.7674 13.1827 14.8385 13.2061C14.8275 13.2637 14.4612 14.5005 13.5863 15.7606C12.8062 16.8695 11.9914 17.9766 10.752 17.9766C9.51259 17.9766 9.19362 17.2655 7.76281 17.2655C6.36846 17.2655 5.87269 18 4.73898 18C3.60527 18 2.81422 16.9739 1.9047 15.7138C0.851193 14.234 0 11.9352 0 9.75338C0 6.25383 2.30387 4.39784 4.57129 4.39784C5.77609 4.39784 6.78038 5.17912 7.5368 5.17912C8.25676 5.17912 9.37953 4.35104 10.7502 4.35104C11.2697 4.35104 13.1361 4.39784 14.3646 6.13681ZM10.0995 2.86949C10.6663 2.20522 11.0673 1.28353 11.0673 0.361836C11.0673 0.234023 11.0564 0.10441 11.0327 0C10.1104 0.0342034 9.01317 0.606661 8.35154 1.36454C7.83207 1.94779 7.34724 2.86949 7.34724 3.80378C7.34724 3.94419 7.37093 4.08461 7.38187 4.12961C7.4402 4.14041 7.53498 4.15302 7.62976 4.15302C8.45725 4.15302 9.49801 3.60576 10.0995 2.86949Z" fill="#143420"/>
</svg>
