<svg width="148" height="43" viewBox="0 0 148 43" fill="none" xmlns="http://www.w3.org/2000/svg">
<path d="M36.8285 17.3935C36.6899 17.4997 34.2435 18.8612 34.2435 21.8885C34.2435 25.3902 37.3565 26.6289 37.4496 26.6596C37.4353 26.7351 36.9551 28.3562 35.8083 30.0079C34.7858 31.4614 33.7179 32.9126 32.0933 32.9126C30.4687 32.9126 30.0506 31.9805 28.1752 31.9805C26.3475 31.9805 25.6977 32.9432 24.2116 32.9432C22.7256 32.9432 21.6888 31.5983 20.4966 29.9465C19.1157 28.007 18 24.9937 18 22.1339C18 17.5469 21.0198 15.1141 23.9919 15.1141C25.571 15.1141 26.8874 16.1382 27.8789 16.1382C28.8226 16.1382 30.2943 15.0528 32.0909 15.0528C32.7718 15.0528 35.2182 15.1141 36.8285 17.3935ZM31.238 13.1108C31.981 12.2401 32.5066 11.032 32.5066 9.82389C32.5066 9.65636 32.4923 9.48647 32.4612 9.34961C31.2523 9.39444 29.8141 10.1448 28.9468 11.1382C28.2659 11.9027 27.6304 13.1108 27.6304 14.3354C27.6304 14.5195 27.6615 14.7035 27.6758 14.7625C27.7523 14.7767 27.8765 14.7932 28.0008 14.7932C29.0854 14.7932 30.4496 14.0759 31.238 13.1108Z" fill="#143420"/>
<path d="M45.0561 8.68706H48.0878C48.6477 8.68706 49.1325 8.78265 49.5422 8.97384C49.9519 9.16503 50.2865 9.42791 50.5459 9.76249C50.8054 10.0902 50.9966 10.476 51.1195 10.9199C51.2492 11.3637 51.3141 11.8382 51.3141 12.3435C51.3141 12.8488 51.2492 13.3234 51.1195 13.7672C50.9966 14.211 50.8054 14.6002 50.5459 14.9348C50.2865 15.2626 49.9519 15.522 49.5422 15.7132C49.1325 15.9044 48.6477 16 48.0878 16H45.0561V8.68706ZM46.3364 14.9553H47.5962C48.0946 14.9553 48.5009 14.8904 48.815 14.7607C49.1359 14.6241 49.3852 14.4398 49.5627 14.2076C49.7471 13.9686 49.87 13.6921 49.9314 13.378C49.9997 13.0571 50.0338 12.7123 50.0338 12.3435C50.0338 11.9748 49.9997 11.6334 49.9314 11.3193C49.87 10.9984 49.7471 10.7218 49.5627 10.4897C49.3852 10.2507 49.1359 10.0663 48.815 9.93661C48.5009 9.80005 48.0946 9.73177 47.5962 9.73177H46.3364V14.9553ZM54.7112 16.1434C54.2879 16.1434 53.9089 16.0751 53.5744 15.9385C53.2466 15.7952 52.9667 15.6006 52.7345 15.3547C52.5092 15.1089 52.335 14.8153 52.2121 14.4739C52.0961 14.1325 52.038 13.757 52.038 13.3473C52.038 12.9444 52.0961 12.5723 52.2121 12.2309C52.335 11.8895 52.5092 11.5958 52.7345 11.35C52.9667 11.1042 53.2466 10.913 53.5744 10.7765C53.9089 10.6331 54.2879 10.5614 54.7112 10.5614C55.1346 10.5614 55.5101 10.6331 55.8379 10.7765C56.1725 10.913 56.4524 11.1042 56.6777 11.35C56.9099 11.5958 57.084 11.8895 57.2001 12.2309C57.323 12.5723 57.3845 12.9444 57.3845 13.3473C57.3845 13.757 57.323 14.1325 57.2001 14.4739C57.084 14.8153 56.9099 15.1089 56.6777 15.3547C56.4524 15.6006 56.1725 15.7952 55.8379 15.9385C55.5101 16.0751 55.1346 16.1434 54.7112 16.1434ZM54.7112 15.2216C54.9707 15.2216 55.196 15.167 55.3872 15.0577C55.5784 14.9485 55.7355 14.8051 55.8584 14.6275C55.9813 14.45 56.07 14.252 56.1247 14.0335C56.1861 13.8082 56.2168 13.5794 56.2168 13.3473C56.2168 13.1219 56.1861 12.8966 56.1247 12.6713C56.07 12.446 55.9813 12.2479 55.8584 12.0772C55.7355 11.8997 55.5784 11.7563 55.3872 11.6471C55.196 11.5378 54.9707 11.4832 54.7112 11.4832C54.4518 11.4832 54.2264 11.5378 54.0353 11.6471C53.8441 11.7563 53.687 11.8997 53.5641 12.0772C53.4412 12.2479 53.349 12.446 53.2876 12.6713C53.233 12.8966 53.2056 13.1219 53.2056 13.3473C53.2056 13.5794 53.233 13.8082 53.2876 14.0335C53.349 14.252 53.4412 14.45 53.5641 14.6275C53.687 14.8051 53.8441 14.9485 54.0353 15.0577C54.2264 15.167 54.4518 15.2216 54.7112 15.2216ZM57.8738 10.7048H59.1131L60.1475 14.6583H60.168L61.1615 10.7048H62.3394L63.2919 14.6583H63.3124L64.3878 10.7048H65.5759L63.9167 16H62.7183L61.7351 12.067H61.7146L60.7416 16H59.5125L57.8738 10.7048ZM66.3269 10.7048H67.433V11.4832L67.4535 11.5037C67.631 11.2101 67.8632 10.9813 68.15 10.8174C68.4368 10.6467 68.7543 10.5614 69.1025 10.5614C69.6829 10.5614 70.1404 10.7116 70.475 11.012C70.8095 11.3125 70.9768 11.7631 70.9768 12.364V16H69.8092V12.6713C69.7956 12.2548 69.7068 11.9543 69.5429 11.77C69.379 11.5788 69.123 11.4832 68.7748 11.4832C68.5767 11.4832 68.3992 11.5207 68.2422 11.5958C68.0851 11.6641 67.952 11.7631 67.8427 11.8929C67.7335 12.0158 67.6481 12.1626 67.5867 12.3333C67.5252 12.504 67.4945 12.6849 67.4945 12.8761V16H66.3269V10.7048ZM72.2389 8.68706H73.4065V16H72.2389V8.68706ZM77.1061 16.1434C76.6827 16.1434 76.3038 16.0751 75.9692 15.9385C75.6414 15.7952 75.3615 15.6006 75.1293 15.3547C74.904 15.1089 74.7299 14.8153 74.607 14.4739C74.4909 14.1325 74.4329 13.757 74.4329 13.3473C74.4329 12.9444 74.4909 12.5723 74.607 12.2309C74.7299 11.8895 74.904 11.5958 75.1293 11.35C75.3615 11.1042 75.6414 10.913 75.9692 10.7765C76.3038 10.6331 76.6827 10.5614 77.1061 10.5614C77.5294 10.5614 77.905 10.6331 78.2327 10.7765C78.5673 10.913 78.8473 11.1042 79.0726 11.35C79.3047 11.5958 79.4789 11.8895 79.5949 12.2309C79.7178 12.5723 79.7793 12.9444 79.7793 13.3473C79.7793 13.757 79.7178 14.1325 79.5949 14.4739C79.4789 14.8153 79.3047 15.1089 79.0726 15.3547C78.8473 15.6006 78.5673 15.7952 78.2327 15.9385C77.905 16.0751 77.5294 16.1434 77.1061 16.1434ZM77.1061 15.2216C77.3655 15.2216 77.5909 15.167 77.7821 15.0577C77.9733 14.9485 78.1303 14.8051 78.2532 14.6275C78.3761 14.45 78.4649 14.252 78.5195 14.0335C78.581 13.8082 78.6117 13.5794 78.6117 13.3473C78.6117 13.1219 78.581 12.8966 78.5195 12.6713C78.4649 12.446 78.3761 12.2479 78.2532 12.0772C78.1303 11.8997 77.9733 11.7563 77.7821 11.6471C77.5909 11.5378 77.3655 11.4832 77.1061 11.4832C76.8466 11.4832 76.6213 11.5378 76.4301 11.6471C76.2389 11.7563 76.0819 11.8997 75.9589 12.0772C75.836 12.2479 75.7439 12.446 75.6824 12.6713C75.6278 12.8966 75.6005 13.1219 75.6005 13.3473C75.6005 13.5794 75.6278 13.8082 75.6824 14.0335C75.7439 14.252 75.836 14.45 75.9589 14.6275C76.0819 14.8051 76.2389 14.9485 76.4301 15.0577C76.6213 15.167 76.8466 15.2216 77.1061 15.2216ZM85.1849 14.8221C85.1849 14.9655 85.2019 15.068 85.2361 15.1294C85.277 15.1909 85.3522 15.2216 85.4614 15.2216C85.4955 15.2216 85.5365 15.2216 85.5843 15.2216C85.6321 15.2216 85.6867 15.2148 85.7482 15.2011V16.0102C85.7072 16.0239 85.6526 16.0376 85.5843 16.0512C85.5229 16.0717 85.458 16.0888 85.3897 16.1024C85.3214 16.1161 85.2531 16.1263 85.1849 16.1331C85.1166 16.14 85.0585 16.1434 85.0107 16.1434C84.7718 16.1434 84.5737 16.0956 84.4167 16C84.2596 15.9044 84.1572 15.7371 84.1094 15.4981C83.8773 15.7235 83.5905 15.8873 83.2491 15.9898C82.9145 16.0922 82.5902 16.1434 82.2761 16.1434C82.0371 16.1434 81.8083 16.1093 81.5898 16.041C81.3713 15.9795 81.1767 15.8873 81.006 15.7644C80.8422 15.6347 80.709 15.4742 80.6066 15.283C80.511 15.085 80.4632 14.8563 80.4632 14.5968C80.4632 14.2691 80.5212 14.0028 80.6373 13.7979C80.7602 13.5931 80.9173 13.4326 81.1085 13.3165C81.3065 13.2005 81.525 13.1185 81.764 13.0707C82.0098 13.0161 82.2556 12.9751 82.5014 12.9478C82.7131 12.9069 82.9145 12.8795 83.1057 12.8659C83.2969 12.8454 83.4642 12.8147 83.6076 12.7737C83.7578 12.7327 83.8739 12.6713 83.9558 12.5893C84.0446 12.5006 84.0889 12.3708 84.0889 12.2001C84.0889 12.0499 84.0514 11.927 83.9763 11.8314C83.908 11.7358 83.8192 11.6641 83.71 11.6163C83.6076 11.5617 83.4915 11.5276 83.3617 11.5139C83.232 11.4934 83.1091 11.4832 82.993 11.4832C82.6653 11.4832 82.3956 11.5515 82.1839 11.688C81.9722 11.8246 81.8527 12.0363 81.8254 12.323H80.6578C80.6783 11.9816 80.7602 11.6983 80.9036 11.4729C81.047 11.2476 81.228 11.0667 81.4465 10.9301C81.6718 10.7935 81.9244 10.6979 82.2044 10.6433C82.4843 10.5887 82.7711 10.5614 83.0647 10.5614C83.3242 10.5614 83.5802 10.5887 83.8329 10.6433C84.0855 10.6979 84.3109 10.7867 84.5089 10.9096C84.7137 11.0325 84.8776 11.193 85.0005 11.391C85.1234 11.5822 85.1849 11.8178 85.1849 12.0977V14.8221ZM84.0173 13.3473C83.8397 13.4633 83.6212 13.535 83.3617 13.5624C83.1023 13.5828 82.8428 13.617 82.5833 13.6648C82.4604 13.6853 82.3409 13.716 82.2249 13.757C82.1088 13.7911 82.0064 13.8423 81.9176 13.9106C81.8288 13.972 81.7571 14.0574 81.7025 14.1666C81.6547 14.2691 81.6308 14.3954 81.6308 14.5456C81.6308 14.6753 81.6684 14.7846 81.7435 14.8734C81.8186 14.9621 81.9074 15.0338 82.0098 15.0884C82.119 15.1362 82.2351 15.1704 82.358 15.1909C82.4877 15.2113 82.6038 15.2216 82.7062 15.2216C82.836 15.2216 82.976 15.2045 83.1262 15.1704C83.2764 15.1362 83.4164 15.0782 83.5461 14.9963C83.6827 14.9143 83.7953 14.8119 83.8841 14.689C83.9729 14.5593 84.0173 14.4022 84.0173 14.2179V13.3473ZM91.4292 16H90.323V15.283H90.3025C90.1455 15.5903 89.9167 15.8122 89.6163 15.9488C89.3159 16.0785 88.9984 16.1434 88.6638 16.1434C88.2473 16.1434 87.882 16.0717 87.5679 15.9283C87.2606 15.7781 87.0045 15.5767 86.7997 15.324C86.5948 15.0714 86.4412 14.7743 86.3388 14.4329C86.2364 14.0847 86.1852 13.7126 86.1852 13.3165C86.1852 12.8386 86.25 12.4255 86.3798 12.0772C86.5095 11.729 86.6802 11.4422 86.8919 11.2169C87.1104 10.9916 87.3562 10.8277 87.6293 10.7253C87.9093 10.616 88.1926 10.5614 88.4794 10.5614C88.6433 10.5614 88.8106 10.5785 88.9813 10.6126C89.152 10.6399 89.3159 10.6877 89.4729 10.756C89.63 10.8243 89.7733 10.913 89.9031 11.0223C90.0396 11.1247 90.1523 11.2476 90.2411 11.391H90.2616V8.68706H91.4292V16ZM87.3528 13.4087C87.3528 13.634 87.3801 13.856 87.4347 14.0745C87.4962 14.293 87.5849 14.4876 87.701 14.6583C87.8239 14.829 87.9775 14.9655 88.1619 15.068C88.3463 15.1704 88.5648 15.2216 88.8174 15.2216C89.0769 15.2216 89.2988 15.167 89.4832 15.0577C89.6743 14.9485 89.828 14.8051 89.9441 14.6275C90.067 14.45 90.1557 14.252 90.2103 14.0335C90.2718 13.8082 90.3025 13.5794 90.3025 13.3473C90.3025 12.76 90.1694 12.3026 89.9031 11.9748C89.6436 11.6471 89.2886 11.4832 88.8379 11.4832C88.5648 11.4832 88.3326 11.5412 88.1414 11.6573C87.9571 11.7666 87.8034 11.9134 87.6805 12.0977C87.5644 12.2752 87.4791 12.4801 87.4245 12.7123C87.3767 12.9376 87.3528 13.1697 87.3528 13.4087ZM97.9806 16.1434C97.5572 16.1434 97.1783 16.0751 96.8437 15.9385C96.5159 15.7952 96.236 15.6006 96.0038 15.3547C95.7785 15.1089 95.6044 14.8153 95.4815 14.4739C95.3654 14.1325 95.3074 13.757 95.3074 13.3473C95.3074 12.9444 95.3654 12.5723 95.4815 12.2309C95.6044 11.8895 95.7785 11.5958 96.0038 11.35C96.236 11.1042 96.5159 10.913 96.8437 10.7765C97.1783 10.6331 97.5572 10.5614 97.9806 10.5614C98.4039 10.5614 98.7795 10.6331 99.1072 10.7765C99.4418 10.913 99.7218 11.1042 99.9471 11.35C100.179 11.5958 100.353 11.8895 100.469 12.2309C100.592 12.5723 100.654 12.9444 100.654 13.3473C100.654 13.757 100.592 14.1325 100.469 14.4739C100.353 14.8153 100.179 15.1089 99.9471 15.3547C99.7218 15.6006 99.4418 15.7952 99.1072 15.9385C98.7795 16.0751 98.4039 16.1434 97.9806 16.1434ZM97.9806 15.2216C98.2401 15.2216 98.4654 15.167 98.6566 15.0577C98.8478 14.9485 99.0048 14.8051 99.1277 14.6275C99.2506 14.45 99.3394 14.252 99.394 14.0335C99.4555 13.8082 99.4862 13.5794 99.4862 13.3473C99.4862 13.1219 99.4555 12.8966 99.394 12.6713C99.3394 12.446 99.2506 12.2479 99.1277 12.0772C99.0048 11.8997 98.8478 11.7563 98.6566 11.6471C98.4654 11.5378 98.2401 11.4832 97.9806 11.4832C97.7211 11.4832 97.4958 11.5378 97.3046 11.6471C97.1134 11.7563 96.9564 11.8997 96.8335 12.0772C96.7106 12.2479 96.6184 12.446 96.5569 12.6713C96.5023 12.8966 96.475 13.1219 96.475 13.3473C96.475 13.5794 96.5023 13.8082 96.5569 14.0335C96.6184 14.252 96.7106 14.45 96.8335 14.6275C96.9564 14.8051 97.1134 14.9485 97.3046 15.0577C97.4958 15.167 97.7211 15.2216 97.9806 15.2216ZM101.624 10.7048H102.731V11.4832L102.751 11.5037C102.929 11.2101 103.161 10.9813 103.448 10.8174C103.734 10.6467 104.052 10.5614 104.4 10.5614C104.981 10.5614 105.438 10.7116 105.773 11.012C106.107 11.3125 106.274 11.7631 106.274 12.364V16H105.107V12.6713C105.093 12.2548 105.004 11.9543 104.841 11.77C104.677 11.5788 104.421 11.4832 104.072 11.4832C103.874 11.4832 103.697 11.5207 103.54 11.5958C103.383 11.6641 103.25 11.7631 103.14 11.8929C103.031 12.0158 102.946 12.1626 102.884 12.3333C102.823 12.504 102.792 12.6849 102.792 12.8761V16H101.624V10.7048ZM109.824 10.7048H110.705V9.11723H111.872V10.7048H112.927V11.5754H111.872V14.4022C111.872 14.5251 111.876 14.631 111.882 14.7197C111.896 14.8085 111.92 14.8836 111.954 14.9451C111.995 15.0065 112.053 15.0543 112.128 15.0884C112.203 15.1158 112.306 15.1294 112.436 15.1294C112.517 15.1294 112.599 15.1294 112.681 15.1294C112.763 15.1226 112.845 15.1089 112.927 15.0884V15.9898C112.797 16.0034 112.671 16.0171 112.548 16.0307C112.425 16.0444 112.299 16.0512 112.169 16.0512C111.862 16.0512 111.613 16.0239 111.422 15.9693C111.237 15.9078 111.09 15.8225 110.981 15.7132C110.879 15.5971 110.807 15.4537 110.766 15.283C110.732 15.1123 110.711 14.9177 110.705 14.6992V11.5754H109.824V10.7048ZM113.767 8.68706H114.935V11.4012H114.955C115.099 11.1623 115.31 10.9642 115.59 10.8072C115.877 10.6433 116.195 10.5614 116.543 10.5614C117.123 10.5614 117.581 10.7116 117.915 11.012C118.25 11.3125 118.417 11.7631 118.417 12.364V16H117.249V12.6713C117.236 12.2548 117.147 11.9543 116.983 11.77C116.819 11.5788 116.563 11.4832 116.215 11.4832C116.017 11.4832 115.839 11.5207 115.682 11.5958C115.525 11.6641 115.392 11.7631 115.283 11.8929C115.174 12.0158 115.088 12.1626 115.027 12.3333C114.965 12.504 114.935 12.6849 114.935 12.8761V16H113.767V8.68706ZM123.284 12.8864C123.271 12.702 123.23 12.5245 123.161 12.3538C123.1 12.1831 123.011 12.0363 122.895 11.9134C122.786 11.7836 122.649 11.6812 122.485 11.6061C122.328 11.5242 122.151 11.4832 121.953 11.4832C121.748 11.4832 121.56 11.5207 121.39 11.5958C121.226 11.6641 121.082 11.7631 120.959 11.8929C120.843 12.0158 120.748 12.1626 120.673 12.3333C120.604 12.504 120.567 12.6884 120.56 12.8864H123.284ZM120.56 13.6545C120.56 13.8594 120.587 14.0574 120.642 14.2486C120.703 14.4398 120.792 14.6071 120.908 14.7505C121.024 14.8938 121.171 15.0099 121.349 15.0987C121.526 15.1806 121.738 15.2216 121.984 15.2216C122.325 15.2216 122.598 15.1499 122.803 15.0065C123.015 14.8563 123.172 14.6344 123.274 14.3408H124.38C124.319 14.6275 124.213 14.8836 124.063 15.1089C123.913 15.3343 123.732 15.5254 123.52 15.6825C123.308 15.8327 123.069 15.9454 122.803 16.0205C122.544 16.1024 122.27 16.1434 121.984 16.1434C121.567 16.1434 121.198 16.0751 120.877 15.9385C120.557 15.802 120.283 15.6108 120.058 15.365C119.84 15.1192 119.672 14.8256 119.556 14.4842C119.447 14.1427 119.392 13.7672 119.392 13.3575C119.392 12.982 119.45 12.6269 119.566 12.2923C119.689 11.9509 119.86 11.6539 120.079 11.4012C120.304 11.1418 120.574 10.9369 120.888 10.7867C121.202 10.6365 121.557 10.5614 121.953 10.5614C122.369 10.5614 122.742 10.6502 123.069 10.8277C123.404 10.9984 123.68 11.2271 123.899 11.5139C124.117 11.8007 124.274 12.1319 124.37 12.5074C124.472 12.8761 124.5 13.2585 124.452 13.6545H120.56Z" fill="#143420"/>
<path d="M48.8355 20.1047H51.1059L55.8002 32.293H53.5128L52.3691 29.0667H47.504L46.3603 32.293H44.1582L48.8355 20.1047ZM48.0844 27.445H51.8057L49.9792 22.2044H49.928L48.0844 27.445ZM56.7389 23.4676H58.5825V24.6625H58.6167C58.8898 24.1504 59.271 23.7862 59.7604 23.57C60.2497 23.3424 60.7789 23.2286 61.3479 23.2286C62.0421 23.2286 62.6453 23.3538 63.1574 23.6042C63.6809 23.8431 64.1133 24.1789 64.4547 24.6113C64.7961 25.0324 65.0522 25.5274 65.2229 26.0964C65.3936 26.6654 65.479 27.2743 65.479 27.923C65.479 28.5147 65.3993 29.0894 65.24 29.6471C65.092 30.2047 64.8587 30.6997 64.5401 31.1322C64.2328 31.5533 63.8402 31.8947 63.3622 32.1564C62.8843 32.4068 62.3209 32.532 61.6723 32.532C61.3878 32.532 61.1033 32.5035 60.8187 32.4466C60.5342 32.4011 60.2611 32.3214 59.9994 32.2076C59.7376 32.0938 59.493 31.9516 59.2653 31.7809C59.0491 31.5988 58.867 31.3882 58.7191 31.1493H58.685V35.5534H56.7389V23.4676ZM63.5329 27.8888C63.5329 27.4905 63.4817 27.1036 63.3793 26.728C63.2769 26.3525 63.1232 26.0225 62.9184 25.738C62.7136 25.4421 62.4575 25.2088 62.1502 25.0381C61.843 24.856 61.4902 24.7649 61.0919 24.7649C60.2725 24.7649 59.6523 25.0494 59.2312 25.6185C58.8215 26.1875 58.6167 26.9443 58.6167 27.8888C58.6167 28.3326 58.6679 28.748 58.7703 29.135C58.8841 29.5105 59.0491 29.8348 59.2653 30.108C59.4816 30.3811 59.7376 30.5973 60.0335 30.7566C60.3408 30.916 60.6936 30.9956 61.0919 30.9956C61.5357 30.9956 61.9113 30.9046 62.2185 30.7225C62.5258 30.5404 62.7761 30.3071 62.9696 30.0226C63.1745 29.7267 63.3167 29.3967 63.3964 29.0325C63.4874 28.657 63.5329 28.2757 63.5329 27.8888ZM67.1745 23.4676H69.0181V24.6625H69.0523C69.3254 24.1504 69.7066 23.7862 70.196 23.57C70.6853 23.3424 71.2145 23.2286 71.7835 23.2286C72.4777 23.2286 73.0809 23.3538 73.593 23.6042C74.1165 23.8431 74.5489 24.1789 74.8903 24.6113C75.2317 25.0324 75.4878 25.5274 75.6585 26.0964C75.8292 26.6654 75.9145 27.2743 75.9145 27.923C75.9145 28.5147 75.8349 29.0894 75.6756 29.6471C75.5276 30.2047 75.2943 30.6997 74.9757 31.1322C74.6684 31.5533 74.2758 31.8947 73.7978 32.1564C73.3198 32.4068 72.7565 32.532 72.1079 32.532C71.8233 32.532 71.5388 32.5035 71.2543 32.4466C70.9698 32.4011 70.6967 32.3214 70.435 32.2076C70.1732 32.0938 69.9285 31.9516 69.7009 31.7809C69.4847 31.5988 69.3026 31.3882 69.1547 31.1493H69.1205V35.5534H67.1745V23.4676ZM73.9685 27.8888C73.9685 27.4905 73.9173 27.1036 73.8149 26.728C73.7125 26.3525 73.5588 26.0225 73.354 25.738C73.1491 25.4421 72.8931 25.2088 72.5858 25.0381C72.2786 24.856 71.9258 24.7649 71.5275 24.7649C70.7081 24.7649 70.0879 25.0494 69.6668 25.6185C69.2571 26.1875 69.0523 26.9443 69.0523 27.8888C69.0523 28.3326 69.1035 28.748 69.2059 29.135C69.3197 29.5105 69.4847 29.8348 69.7009 30.108C69.9172 30.3811 70.1732 30.5973 70.4691 30.7566C70.7764 30.916 71.1292 30.9956 71.5275 30.9956C71.9713 30.9956 72.3468 30.9046 72.6541 30.7225C72.9614 30.5404 73.2117 30.3071 73.4052 30.0226C73.61 29.7267 73.7523 29.3967 73.832 29.0325C73.923 28.657 73.9685 28.2757 73.9685 27.8888ZM83.9828 28.2302C83.9828 28.6968 84.0625 29.0951 84.2218 29.4251C84.3811 29.7552 84.603 30.0283 84.8875 30.2445C85.1721 30.4494 85.4964 30.603 85.8606 30.7054C86.2361 30.7965 86.6401 30.842 87.0726 30.842C87.5391 30.842 87.9374 30.7908 88.2675 30.6884C88.5975 30.5746 88.8649 30.4323 89.0698 30.2616C89.2746 30.0909 89.4226 29.8974 89.5136 29.6812C89.6047 29.4536 89.6502 29.226 89.6502 28.9984C89.6502 28.5318 89.5421 28.1904 89.3258 27.9742C89.121 27.7466 88.8934 27.5872 88.643 27.4962C88.2106 27.3369 87.7042 27.1889 87.1238 27.0524C86.5548 26.9044 85.8492 26.7167 85.007 26.489C84.4835 26.3525 84.0454 26.1761 83.6926 25.9599C83.3512 25.7323 83.0781 25.4819 82.8732 25.2088C82.6684 24.9356 82.5205 24.6455 82.4294 24.3382C82.3498 24.0309 82.3099 23.718 82.3099 23.3993C82.3099 22.7848 82.4351 22.2556 82.6855 21.8118C82.9472 21.3566 83.2886 20.981 83.7097 20.6851C84.1308 20.3892 84.6087 20.173 85.1436 20.0365C85.6785 19.8885 86.219 19.8145 86.7653 19.8145C87.4026 19.8145 88 19.8999 88.5577 20.0706C89.1267 20.2299 89.6217 20.4746 90.0428 20.8046C90.4752 21.1346 90.8166 21.5443 91.067 22.0337C91.3174 22.5117 91.4426 23.0693 91.4426 23.7066H89.3088C89.2519 22.9213 88.9844 22.3694 88.5065 22.0508C88.0285 21.7207 87.4196 21.5557 86.6799 21.5557C86.4296 21.5557 86.1735 21.5842 85.9118 21.6411C85.65 21.6866 85.411 21.7719 85.1948 21.8971C84.9786 22.0109 84.7965 22.1702 84.6486 22.3751C84.512 22.5799 84.4437 22.836 84.4437 23.1433C84.4437 23.5757 84.5746 23.9171 84.8363 24.1675C85.1095 24.4065 85.4622 24.5885 85.8947 24.7137C85.9402 24.7251 86.1166 24.7763 86.4239 24.8674C86.7425 24.947 87.0953 25.0381 87.4822 25.1405C87.8692 25.2429 88.2447 25.3453 88.6089 25.4478C88.9844 25.5388 89.2519 25.6071 89.4112 25.6526C89.8095 25.7778 90.1566 25.9485 90.4525 26.1647C90.7484 26.3809 90.993 26.6313 91.1865 26.9158C91.3914 27.1889 91.5393 27.4848 91.6303 27.8035C91.7328 28.1221 91.784 28.4408 91.784 28.7594C91.784 29.4422 91.6417 30.0283 91.3572 30.5177C91.0841 30.9956 90.7199 31.3882 90.2647 31.6955C89.8095 32.0028 89.2917 32.2247 88.7113 32.3613C88.1309 32.5092 87.5391 32.5832 86.936 32.5832C86.2418 32.5832 85.5874 32.4978 84.9729 32.3271C84.3584 32.1564 83.8235 31.8947 83.3683 31.5419C82.9131 31.1891 82.5489 30.7396 82.2758 30.1933C82.0027 29.6357 81.8604 28.9813 81.849 28.2302H83.9828ZM92.4913 23.4676H93.9594V20.8217H95.9054V23.4676H97.6636V24.9186H95.9054V29.63C95.9054 29.8348 95.9111 30.0112 95.9225 30.1592C95.9452 30.3071 95.9851 30.4323 96.042 30.5347C96.1102 30.6371 96.207 30.7168 96.3322 30.7737C96.4573 30.8192 96.628 30.842 96.8443 30.842C96.9808 30.842 97.1174 30.842 97.254 30.842C97.3905 30.8306 97.5271 30.8078 97.6636 30.7737V32.2759C97.4474 32.2987 97.2369 32.3214 97.032 32.3442C96.8272 32.3669 96.6167 32.3783 96.4004 32.3783C95.8883 32.3783 95.4729 32.3328 95.1543 32.2418C94.847 32.1393 94.6024 31.9971 94.4203 31.815C94.2496 31.6215 94.1301 31.3825 94.0618 31.098C94.0049 30.8135 93.9708 30.4892 93.9594 30.125V24.9186H92.4913V23.4676ZM103.109 32.532C102.404 32.532 101.772 32.4182 101.214 32.1905C100.668 31.9516 100.202 31.6272 99.8146 31.2175C99.4391 30.8078 99.1489 30.3185 98.944 29.7495C98.7506 29.1805 98.6539 28.5546 98.6539 27.8717C98.6539 27.2003 98.7506 26.5801 98.944 26.0111C99.1489 25.4421 99.4391 24.9527 99.8146 24.543C100.202 24.1333 100.668 23.8147 101.214 23.5871C101.772 23.3481 102.404 23.2286 103.109 23.2286C103.815 23.2286 104.441 23.3481 104.987 23.5871C105.545 23.8147 106.011 24.1333 106.387 24.543C106.774 24.9527 107.064 25.4421 107.257 26.0111C107.462 26.5801 107.565 27.2003 107.565 27.8717C107.565 28.5546 107.462 29.1805 107.257 29.7495C107.064 30.3185 106.774 30.8078 106.387 31.2175C106.011 31.6272 105.545 31.9516 104.987 32.1905C104.441 32.4182 103.815 32.532 103.109 32.532ZM103.109 30.9956C103.542 30.9956 103.917 30.9046 104.236 30.7225C104.555 30.5404 104.816 30.3014 105.021 30.0055C105.226 29.7097 105.374 29.3796 105.465 29.0155C105.567 28.6399 105.619 28.2587 105.619 27.8717C105.619 27.4962 105.567 27.1207 105.465 26.7451C105.374 26.3696 105.226 26.0395 105.021 25.755C104.816 25.4591 104.555 25.2202 104.236 25.0381C103.917 24.856 103.542 24.7649 103.109 24.7649C102.677 24.7649 102.301 24.856 101.983 25.0381C101.664 25.2202 101.402 25.4591 101.197 25.755C100.992 26.0395 100.839 26.3696 100.736 26.7451C100.645 27.1207 100.6 27.4962 100.6 27.8717C100.6 28.2587 100.645 28.6399 100.736 29.0155C100.839 29.3796 100.992 29.7097 101.197 30.0055C101.402 30.3014 101.664 30.5404 101.983 30.7225C102.301 30.9046 102.677 30.9956 103.109 30.9956ZM109.182 23.4676H111.009V25.1746H111.043C111.1 24.9356 111.208 24.7024 111.367 24.4747C111.538 24.2471 111.737 24.0423 111.965 23.8602C112.204 23.6668 112.466 23.5131 112.75 23.3993C113.035 23.2855 113.325 23.2286 113.621 23.2286C113.848 23.2286 114.002 23.2343 114.082 23.2457C114.173 23.2571 114.264 23.2684 114.355 23.2798V25.1576C114.218 25.1348 114.076 25.1177 113.928 25.1063C113.791 25.0836 113.655 25.0722 113.518 25.0722C113.188 25.0722 112.875 25.1405 112.579 25.2771C112.295 25.4022 112.045 25.5957 111.828 25.8574C111.612 26.1078 111.441 26.4208 111.316 26.7963C111.191 27.1719 111.128 27.6043 111.128 28.0937V32.293H109.182V23.4676ZM120.944 27.1036C120.921 26.7963 120.853 26.5004 120.739 26.2159C120.636 25.9314 120.488 25.6867 120.295 25.4819C120.113 25.2657 119.885 25.095 119.612 24.9698C119.35 24.8332 119.054 24.7649 118.724 24.7649C118.383 24.7649 118.07 24.8275 117.786 24.9527C117.512 25.0665 117.273 25.2315 117.069 25.4478C116.875 25.6526 116.716 25.8973 116.591 26.1818C116.477 26.4663 116.414 26.7736 116.403 27.1036H120.944ZM116.403 28.3839C116.403 28.7253 116.448 29.0553 116.539 29.3739C116.642 29.6926 116.79 29.9714 116.983 30.2104C117.177 30.4494 117.421 30.6428 117.717 30.7908C118.013 30.9273 118.366 30.9956 118.776 30.9956C119.345 30.9956 119.8 30.8761 120.141 30.6371C120.494 30.3868 120.756 30.0169 120.927 29.5276H122.77C122.668 30.0055 122.491 30.4323 122.241 30.8078C121.991 31.1834 121.689 31.502 121.336 31.7638C120.983 32.0142 120.585 32.2019 120.141 32.3271C119.709 32.4637 119.254 32.532 118.776 32.532C118.081 32.532 117.467 32.4182 116.932 32.1905C116.397 31.9629 115.942 31.6443 115.566 31.2346C115.202 30.8249 114.923 30.3356 114.73 29.7666C114.548 29.1975 114.457 28.5716 114.457 27.8888C114.457 27.2629 114.554 26.6711 114.747 26.1135C114.952 25.5445 115.236 25.0494 115.601 24.6284C115.976 24.1959 116.426 23.8545 116.949 23.6042C117.473 23.3538 118.064 23.2286 118.724 23.2286C119.419 23.2286 120.039 23.3766 120.585 23.6724C121.143 23.9569 121.604 24.3382 121.968 24.8162C122.332 25.2941 122.594 25.8461 122.753 26.472C122.924 27.0865 122.969 27.7238 122.89 28.3839H116.403Z" fill="#143420"/>
</svg>
