<svg width="148" height="43" viewBox="0 0 148 43" fill="none" xmlns="http://www.w3.org/2000/svg">
<path d="M35.4092 25.3945C38.3953 23.7256 40.6788 22.454 40.874 22.3546C41.4985 22.0169 42.1426 21.1228 40.874 20.4274C40.4641 20.2088 38.2587 18.9769 35.4092 17.3875L31.4863 21.4009L35.4092 25.3945Z" fill="#FFD400"/>
<path d="M31.4862 21.4009L18.9563 34.2559C19.2491 34.2957 19.5808 34.2162 19.9712 33.9976C20.7909 33.5406 29.4954 28.6927 35.4091 25.3945L31.4862 21.4009Z" fill="#FF3333"/>
<path d="M31.4863 21.4009L35.4092 17.3874C35.4092 17.3874 20.8495 9.30086 19.9713 8.82401C19.6395 8.62532 19.2687 8.56572 18.9369 8.62532L31.4863 21.4009Z" fill="#48FF48"/>
<path d="M31.4862 21.4011L18.9368 8.62549C18.4294 8.7447 18 9.20168 18 10.1355C18 11.6257 18 31.4944 18 32.7461C18 33.6004 18.3318 34.2164 18.9563 34.276L31.4862 21.4011Z" fill="#3BCCFF"/>
<path d="M55.5907 16.293H54.7713L54.5767 15.4326C54.2353 15.8218 53.8939 16.0915 53.5525 16.2418C53.2111 16.392 52.8185 16.4671 52.3746 16.4671C51.8284 16.4671 51.3368 16.3681 50.8998 16.1701C50.4696 15.9652 50.1043 15.6887 49.8039 15.3404C49.5034 14.9922 49.2713 14.5859 49.1074 14.1216C48.9503 13.6573 48.8718 13.1623 48.8718 12.6365C48.8718 12.1176 48.9503 11.6259 49.1074 11.1616C49.2713 10.6973 49.5034 10.291 49.8039 9.9428C50.1043 9.59456 50.4696 9.31802 50.8998 9.11318C51.3368 8.90833 51.8284 8.80591 52.3746 8.80591C52.7707 8.80591 53.1462 8.86054 53.5013 8.96979C53.8632 9.07221 54.1841 9.22926 54.4641 9.44093C54.744 9.64577 54.9762 9.90524 55.1605 10.2193C55.3449 10.5334 55.461 10.8953 55.5088 11.305H54.2592C54.2251 11.066 54.15 10.8578 54.0339 10.6802C53.9246 10.4959 53.7847 10.3422 53.614 10.2193C53.4433 10.0964 53.2521 10.0043 53.0404 9.9428C52.8287 9.88134 52.6068 9.85062 52.3746 9.85062C51.9854 9.85062 51.6475 9.92914 51.3607 10.0862C51.0807 10.2432 50.852 10.4549 50.6744 10.7212C50.4969 10.9807 50.3638 11.2777 50.275 11.6123C50.1931 11.9469 50.1521 12.2883 50.1521 12.6365C50.1521 12.9847 50.1931 13.3261 50.275 13.6607C50.3638 13.9953 50.4969 14.2957 50.6744 14.562C50.852 14.8215 51.0807 15.0298 51.3607 15.1868C51.6475 15.3439 51.9854 15.4224 52.3746 15.4224C52.7024 15.4292 52.9926 15.3882 53.2452 15.2995C53.4979 15.2039 53.7095 15.0707 53.8803 14.9C54.0578 14.7225 54.1909 14.5074 54.2797 14.2548C54.3685 14.0021 54.4163 13.7222 54.4231 13.4149H52.4771V12.4419H55.5907V16.293ZM60.4536 13.1793C60.4399 12.995 60.399 12.8174 60.3307 12.6467C60.2692 12.476 60.1805 12.3292 60.0644 12.2063C59.9551 12.0766 59.8186 11.9742 59.6547 11.8991C59.4977 11.8171 59.3201 11.7762 59.1221 11.7762C58.9173 11.7762 58.7295 11.8137 58.5588 11.8888C58.3949 11.9571 58.2515 12.0561 58.1286 12.1858C58.0125 12.3087 57.9169 12.4556 57.8418 12.6263C57.7735 12.797 57.736 12.9813 57.7292 13.1793H60.4536ZM57.7292 13.9475C57.7292 14.1523 57.7565 14.3504 57.8111 14.5416C57.8726 14.7327 57.9613 14.9 58.0774 15.0434C58.1935 15.1868 58.3403 15.3029 58.5178 15.3917C58.6953 15.4736 58.907 15.5146 59.1528 15.5146C59.4942 15.5146 59.7674 15.4429 59.9722 15.2995C60.1839 15.1493 60.3409 14.9273 60.4434 14.6337H61.5495C61.4881 14.9205 61.3822 15.1766 61.232 15.4019C61.0818 15.6272 60.9008 15.8184 60.6892 15.9755C60.4775 16.1257 60.2385 16.2383 59.9722 16.3135C59.7127 16.3954 59.4396 16.4364 59.1528 16.4364C58.7363 16.4364 58.3676 16.3681 58.0467 16.2315C57.7257 16.095 57.4526 15.9038 57.2273 15.658C57.0088 15.4121 56.8415 15.1185 56.7254 14.7771C56.6162 14.4357 56.5616 14.0602 56.5616 13.6505C56.5616 13.2749 56.6196 12.9199 56.7357 12.5853C56.8586 12.2439 57.0293 11.9469 57.2478 11.6942C57.4731 11.4347 57.7428 11.2299 58.0569 11.0797C58.371 10.9295 58.7261 10.8544 59.1221 10.8544C59.5386 10.8544 59.9108 10.9431 60.2385 11.1207C60.5731 11.2914 60.8496 11.5201 61.0681 11.8069C61.2866 12.0937 61.4437 12.4248 61.5393 12.8004C61.6417 13.1691 61.669 13.5515 61.6212 13.9475H57.7292ZM61.9762 10.9977H62.8571V9.4102H64.0247V10.9977H65.0796V11.8683H64.0247V14.6952C64.0247 14.8181 64.0281 14.9239 64.0349 15.0127C64.0486 15.1015 64.0725 15.1766 64.1066 15.238C64.1476 15.2995 64.2056 15.3473 64.2807 15.3814C64.3558 15.4087 64.4583 15.4224 64.588 15.4224C64.6699 15.4224 64.7519 15.4224 64.8338 15.4224C64.9158 15.4156 64.9977 15.4019 65.0796 15.3814V16.2827C64.9499 16.2964 64.8236 16.31 64.7007 16.3237C64.5778 16.3374 64.4514 16.3442 64.3217 16.3442C64.0144 16.3442 63.7652 16.3169 63.574 16.2622C63.3897 16.2008 63.2429 16.1154 63.1336 16.0062C63.0312 15.8901 62.9595 15.7467 62.9185 15.576C62.8844 15.4053 62.8639 15.2107 62.8571 14.9922V11.8683H61.9762V10.9977ZM68.8009 8.98003H69.9685V10.0862H68.8009V8.98003ZM68.8009 10.9977H69.9685V16.293H68.8009V10.9977ZM70.7081 10.9977H71.589V9.4102H72.7566V10.9977H73.8115V11.8683H72.7566V14.6952C72.7566 14.8181 72.76 14.9239 72.7668 15.0127C72.7805 15.1015 72.8044 15.1766 72.8385 15.238C72.8795 15.2995 72.9375 15.3473 73.0126 15.3814C73.0877 15.4087 73.1902 15.4224 73.3199 15.4224C73.4018 15.4224 73.4838 15.4224 73.5657 15.4224C73.6476 15.4156 73.7296 15.4019 73.8115 15.3814V16.2827C73.6818 16.2964 73.5555 16.31 73.4326 16.3237C73.3096 16.3374 73.1833 16.3442 73.0536 16.3442C72.7463 16.3442 72.4971 16.3169 72.3059 16.2622C72.1216 16.2008 71.9747 16.1154 71.8655 16.0062C71.7631 15.8901 71.6914 15.7467 71.6504 15.576C71.6163 15.4053 71.5958 15.2107 71.589 14.9922V11.8683H70.7081V10.9977ZM79.9295 16.4364C79.5061 16.4364 79.1272 16.3681 78.7926 16.2315C78.4648 16.0881 78.1849 15.8935 77.9527 15.6477C77.7274 15.4019 77.5533 15.1083 77.4304 14.7669C77.3143 14.4255 77.2563 14.0499 77.2563 13.6402C77.2563 13.2374 77.3143 12.8652 77.4304 12.5238C77.5533 12.1824 77.7274 11.8888 77.9527 11.643C78.1849 11.3972 78.4648 11.206 78.7926 11.0694C79.1272 10.926 79.5061 10.8544 79.9295 10.8544C80.3528 10.8544 80.7284 10.926 81.0561 11.0694C81.3907 11.206 81.6707 11.3972 81.896 11.643C82.1281 11.8888 82.3023 12.1824 82.4183 12.5238C82.5412 12.8652 82.6027 13.2374 82.6027 13.6402C82.6027 14.0499 82.5412 14.4255 82.4183 14.7669C82.3023 15.1083 82.1281 15.4019 81.896 15.6477C81.6707 15.8935 81.3907 16.0881 81.0561 16.2315C80.7284 16.3681 80.3528 16.4364 79.9295 16.4364ZM79.9295 15.5146C80.1889 15.5146 80.4143 15.4599 80.6055 15.3507C80.7967 15.2414 80.9537 15.098 81.0766 14.9205C81.1995 14.743 81.2883 14.545 81.3429 14.3265C81.4044 14.1011 81.4351 13.8724 81.4351 13.6402C81.4351 13.4149 81.4044 13.1896 81.3429 12.9642C81.2883 12.7389 81.1995 12.5409 81.0766 12.3702C80.9537 12.1927 80.7967 12.0493 80.6055 11.94C80.4143 11.8308 80.1889 11.7762 79.9295 11.7762C79.67 11.7762 79.4447 11.8308 79.2535 11.94C79.0623 12.0493 78.9053 12.1927 78.7823 12.3702C78.6594 12.5409 78.5673 12.7389 78.5058 12.9642C78.4512 13.1896 78.4239 13.4149 78.4239 13.6402C78.4239 13.8724 78.4512 14.1011 78.5058 14.3265C78.5673 14.545 78.6594 14.743 78.7823 14.9205C78.9053 15.098 79.0623 15.2414 79.2535 15.3507C79.4447 15.4599 79.67 15.5146 79.9295 15.5146ZM83.5734 10.9977H84.6795V11.7762L84.7 11.7966C84.8776 11.503 85.1097 11.2743 85.3965 11.1104C85.6833 10.9397 86.0008 10.8544 86.349 10.8544C86.9294 10.8544 87.3869 11.0046 87.7215 11.305C88.0561 11.6054 88.2233 12.0561 88.2233 12.657V16.293H87.0557V12.9642C87.0421 12.5477 86.9533 12.2473 86.7894 12.0629C86.6256 11.8717 86.3695 11.7762 86.0213 11.7762C85.8233 11.7762 85.6457 11.8137 85.4887 11.8888C85.3316 11.9571 85.1985 12.0561 85.0892 12.1858C84.98 12.3087 84.8946 12.4556 84.8332 12.6263C84.7717 12.797 84.741 12.9779 84.741 13.1691V16.293H83.5734V10.9977Z" fill="#143420"/>
<path d="M49.7287 20.3977H55.1059C55.9708 20.3977 56.6764 20.5229 57.2226 20.7733C57.7689 21.0236 58.1899 21.3366 58.4858 21.7121C58.7817 22.0877 58.9809 22.4974 59.0833 22.9412C59.1971 23.385 59.254 23.7947 59.254 24.1703C59.254 24.5458 59.1971 24.9555 59.0833 25.3993C58.9809 25.8318 58.7817 26.2358 58.4858 26.6113C58.1899 26.9869 57.7689 27.2998 57.2226 27.5502C56.6764 27.7892 55.9708 27.9087 55.1059 27.9087H51.8625V32.5859H49.7287V20.3977ZM51.8625 26.1675H54.9864C55.2254 26.1675 55.4701 26.1333 55.7204 26.0651C55.9708 25.9968 56.1984 25.8887 56.4033 25.7407C56.6195 25.5814 56.7902 25.3766 56.9154 25.1262C57.0519 24.8644 57.1202 24.5401 57.1202 24.1532C57.1202 23.7549 57.0633 23.4248 56.9495 23.1631C56.8357 22.9014 56.6821 22.6965 56.4886 22.5486C56.2951 22.3892 56.0732 22.2811 55.8229 22.2242C55.5725 22.1673 55.3051 22.1389 55.0206 22.1389H51.8625V26.1675ZM60.8926 20.3977H62.8386V32.5859H60.8926V20.3977ZM72.3504 30.6228C72.3504 30.8618 72.3789 31.0325 72.4358 31.135C72.5041 31.2374 72.6292 31.2886 72.8113 31.2886C72.8682 31.2886 72.9365 31.2886 73.0162 31.2886C73.0958 31.2886 73.1869 31.2772 73.2893 31.2544V32.603C73.221 32.6258 73.13 32.6485 73.0162 32.6713C72.9137 32.7054 72.8056 32.7339 72.6918 32.7566C72.578 32.7794 72.4642 32.7965 72.3504 32.8079C72.2366 32.8192 72.1399 32.8249 72.0602 32.8249C71.6619 32.8249 71.3319 32.7453 71.0702 32.5859C70.8084 32.4266 70.6377 32.1478 70.558 31.7495C70.1711 32.125 69.6931 32.3982 69.1241 32.5689C68.5665 32.7396 68.0259 32.8249 67.5024 32.8249C67.1041 32.8249 66.7229 32.768 66.3587 32.6542C65.9946 32.5518 65.6702 32.3982 65.3857 32.1933C65.1126 31.9771 64.8907 31.7097 64.72 31.391C64.5607 31.061 64.481 30.6797 64.481 30.2473C64.481 29.701 64.5777 29.2572 64.7712 28.9158C64.976 28.5744 65.2378 28.307 65.5564 28.1135C65.8865 27.92 66.2506 27.7835 66.6489 27.7038C67.0586 27.6128 67.4683 27.5445 67.878 27.499C68.2308 27.4307 68.5665 27.3852 68.8851 27.3624C69.2038 27.3283 69.4826 27.2771 69.7216 27.2088C69.972 27.1405 70.1654 27.0381 70.302 26.9015C70.4499 26.7536 70.5239 26.5373 70.5239 26.2528C70.5239 26.0025 70.4613 25.7976 70.3361 25.6383C70.2223 25.479 70.0744 25.3595 69.8923 25.2798C69.7216 25.1888 69.5281 25.1319 69.3119 25.1091C69.0957 25.075 68.8908 25.0579 68.6974 25.0579C68.1511 25.0579 67.7016 25.1717 67.3488 25.3993C66.996 25.6269 66.7969 25.9797 66.7514 26.4577H64.8053C64.8395 25.8887 64.976 25.4164 65.215 25.0408C65.454 24.6653 65.7556 24.3637 66.1197 24.1361C66.4953 23.9085 66.9164 23.7492 67.383 23.6581C67.8495 23.5671 68.3275 23.5216 68.8169 23.5216C69.2493 23.5216 69.6761 23.5671 70.0971 23.6581C70.5182 23.7492 70.8938 23.8971 71.2238 24.102C71.5652 24.3068 71.8383 24.5743 72.0432 24.9043C72.248 25.2229 72.3504 25.6155 72.3504 26.0821V30.6228ZM70.4044 28.1647C70.1085 28.3582 69.7444 28.4777 69.3119 28.5232C68.8795 28.5573 68.447 28.6142 68.0146 28.6939C67.8097 28.728 67.6106 28.7792 67.4171 28.8475C67.2236 28.9044 67.0529 28.9898 66.905 29.1036C66.757 29.206 66.6375 29.3483 66.5465 29.5303C66.4668 29.701 66.427 29.9116 66.427 30.1619C66.427 30.3782 66.4896 30.5603 66.6148 30.7082C66.74 30.8561 66.8879 30.9756 67.0586 31.0667C67.2407 31.1463 67.4342 31.2032 67.639 31.2374C67.8552 31.2715 68.0487 31.2886 68.2194 31.2886C68.4356 31.2886 68.6689 31.2601 68.9193 31.2032C69.1697 31.1463 69.4029 31.0496 69.6192 30.913C69.8468 30.7765 70.0346 30.6058 70.1825 30.4009C70.3304 30.1847 70.4044 29.923 70.4044 29.6157V28.1647ZM73.4713 23.7606H75.6051L77.9096 30.3497H77.9438L80.18 23.7606H82.2114L78.7802 33.0639C78.6209 33.4622 78.4616 33.8435 78.3022 34.2076C78.1543 34.5718 77.9665 34.8904 77.7389 35.1636C77.5227 35.4481 77.2496 35.67 76.9195 35.8293C76.5895 36 76.1685 36.0854 75.6563 36.0854C75.2011 36.0854 74.7516 36.0512 74.3078 35.9829V34.3442C74.4671 34.3669 74.6207 34.3897 74.7687 34.4125C74.9166 34.4466 75.0703 34.4637 75.2296 34.4637C75.4572 34.4637 75.645 34.4352 75.7929 34.3783C75.9408 34.3214 76.0603 34.2361 76.1514 34.1223C76.2538 34.0198 76.3392 33.8947 76.4074 33.7467C76.4757 33.5988 76.5383 33.4281 76.5952 33.2346L76.8171 32.5518L73.4713 23.7606ZM89.7202 28.5232C89.7202 28.9898 89.7998 29.3881 89.9592 29.7181C90.1185 30.0481 90.3404 30.3213 90.6249 30.5375C90.9094 30.7423 91.2338 30.896 91.5979 30.9984C91.9735 31.0894 92.3775 31.135 92.8099 31.135C93.2765 31.135 93.6748 31.0837 94.0048 30.9813C94.3349 30.8675 94.6023 30.7253 94.8071 30.5546C95.012 30.3839 95.1599 30.1904 95.251 29.9742C95.342 29.7466 95.3875 29.519 95.3875 29.2914C95.3875 28.8248 95.2794 28.4834 95.0632 28.2671C94.8584 28.0395 94.6308 27.8802 94.3804 27.7892C93.9479 27.6298 93.4415 27.4819 92.8611 27.3453C92.2921 27.1974 91.5865 27.0096 90.7444 26.782C90.2209 26.6455 89.7828 26.4691 89.43 26.2528C89.0886 26.0252 88.8155 25.7749 88.6106 25.5017C88.4058 25.2286 88.2578 24.9384 88.1668 24.6312C88.0871 24.3239 88.0473 24.0109 88.0473 23.6923C88.0473 23.0778 88.1725 22.5486 88.4228 22.1047C88.6846 21.6495 89.026 21.274 89.4471 20.9781C89.8681 20.6822 90.3461 20.466 90.881 20.3294C91.4158 20.1815 91.9564 20.1075 92.5026 20.1075C93.1399 20.1075 93.7374 20.1929 94.295 20.3636C94.864 20.5229 95.3591 20.7676 95.7802 21.0976C96.2126 21.4276 96.554 21.8373 96.8044 22.3267C97.0547 22.8046 97.1799 23.3623 97.1799 23.9995H95.0461C94.9892 23.2143 94.7218 22.6624 94.2438 22.3437C93.7659 22.0137 93.157 21.8487 92.4173 21.8487C92.1669 21.8487 91.9109 21.8771 91.6491 21.934C91.3874 21.9796 91.1484 22.0649 90.9322 22.1901C90.716 22.3039 90.5339 22.4632 90.3859 22.6681C90.2494 22.8729 90.1811 23.129 90.1811 23.4362C90.1811 23.8687 90.312 24.2101 90.5737 24.4604C90.8468 24.6994 91.1996 24.8815 91.6321 25.0067C91.6776 25.0181 91.854 25.0693 92.1612 25.1603C92.4799 25.24 92.8327 25.331 93.2196 25.4335C93.6065 25.5359 93.9821 25.6383 94.3462 25.7407C94.7218 25.8318 94.9892 25.9 95.1486 25.9456C95.5469 26.0708 95.894 26.2415 96.1898 26.4577C96.4857 26.6739 96.7304 26.9243 96.9239 27.2088C97.1287 27.4819 97.2767 27.7778 97.3677 28.0964C97.4701 28.4151 97.5213 28.7337 97.5213 29.0524C97.5213 29.7352 97.3791 30.3213 97.0946 30.8106C96.8214 31.2886 96.4573 31.6812 96.0021 31.9885C95.5469 32.2957 95.0291 32.5177 94.4487 32.6542C93.8683 32.8022 93.2765 32.8761 92.6734 32.8761C91.9792 32.8761 91.3248 32.7908 90.7103 32.6201C90.0957 32.4494 89.5609 32.1876 89.1056 31.8348C88.6504 31.4821 88.2863 31.0325 88.0131 30.4863C87.74 29.9287 87.5978 29.2743 87.5864 28.5232H89.7202ZM98.2287 23.7606H99.6967V21.1147H101.643V23.7606H103.401V25.2115H101.643V29.923C101.643 30.1278 101.648 30.3042 101.66 30.4521C101.683 30.6001 101.722 30.7253 101.779 30.8277C101.848 30.9301 101.944 31.0098 102.07 31.0667C102.195 31.1122 102.365 31.135 102.582 31.135C102.718 31.135 102.855 31.135 102.991 31.135C103.128 31.1236 103.264 31.1008 103.401 31.0667V32.5689C103.185 32.5916 102.974 32.6144 102.769 32.6371C102.565 32.6599 102.354 32.6713 102.138 32.6713C101.626 32.6713 101.21 32.6258 100.892 32.5347C100.584 32.4323 100.34 32.2901 100.158 32.108C99.9869 31.9145 99.8674 31.6755 99.7992 31.391C99.7423 31.1065 99.7081 30.7822 99.6967 30.418V25.2115H98.2287V23.7606ZM108.847 32.8249C108.141 32.8249 107.509 32.7111 106.952 32.4835C106.406 32.2445 105.939 31.9202 105.552 31.5105C105.176 31.1008 104.886 30.6115 104.681 30.0425C104.488 29.4734 104.391 28.8475 104.391 28.1647C104.391 27.4933 104.488 26.8731 104.681 26.304C104.886 25.735 105.176 25.2457 105.552 24.836C105.939 24.4263 106.406 24.1077 106.952 23.8801C107.509 23.6411 108.141 23.5216 108.847 23.5216C109.552 23.5216 110.178 23.6411 110.724 23.8801C111.282 24.1077 111.749 24.4263 112.124 24.836C112.511 25.2457 112.801 25.735 112.995 26.304C113.2 26.8731 113.302 27.4933 113.302 28.1647C113.302 28.8475 113.2 29.4734 112.995 30.0425C112.801 30.6115 112.511 31.1008 112.124 31.5105C111.749 31.9202 111.282 32.2445 110.724 32.4835C110.178 32.7111 109.552 32.8249 108.847 32.8249ZM108.847 31.2886C109.279 31.2886 109.655 31.1975 109.973 31.0155C110.292 30.8334 110.554 30.5944 110.758 30.2985C110.963 30.0026 111.111 29.6726 111.202 29.3084C111.305 28.9329 111.356 28.5516 111.356 28.1647C111.356 27.7892 111.305 27.4136 111.202 27.0381C111.111 26.6625 110.963 26.3325 110.758 26.048C110.554 25.7521 110.292 25.5131 109.973 25.331C109.655 25.149 109.279 25.0579 108.847 25.0579C108.414 25.0579 108.039 25.149 107.72 25.331C107.401 25.5131 107.14 25.7521 106.935 26.048C106.73 26.3325 106.576 26.6625 106.474 27.0381C106.383 27.4136 106.337 27.7892 106.337 28.1647C106.337 28.5516 106.383 28.9329 106.474 29.3084C106.576 29.6726 106.73 30.0026 106.935 30.2985C107.14 30.5944 107.401 30.8334 107.72 31.0155C108.039 31.1975 108.414 31.2886 108.847 31.2886ZM114.92 23.7606H116.746V25.4676H116.78C116.837 25.2286 116.945 24.9953 117.105 24.7677C117.275 24.5401 117.475 24.3353 117.702 24.1532C117.941 23.9597 118.203 23.8061 118.487 23.6923C118.772 23.5785 119.062 23.5216 119.358 23.5216C119.586 23.5216 119.739 23.5273 119.819 23.5387C119.91 23.55 120.001 23.5614 120.092 23.5728V25.4505C119.956 25.4278 119.813 25.4107 119.665 25.3993C119.529 25.3766 119.392 25.3652 119.256 25.3652C118.926 25.3652 118.613 25.4335 118.317 25.57C118.032 25.6952 117.782 25.8887 117.566 26.1504C117.349 26.4008 117.179 26.7137 117.054 27.0893C116.928 27.4648 116.866 27.8973 116.866 28.3866V32.5859H114.92V23.7606ZM126.681 27.3965C126.658 27.0893 126.59 26.7934 126.476 26.5089C126.374 26.2244 126.226 25.9797 126.032 25.7749C125.85 25.5586 125.623 25.3879 125.349 25.2628C125.088 25.1262 124.792 25.0579 124.462 25.0579C124.12 25.0579 123.807 25.1205 123.523 25.2457C123.25 25.3595 123.011 25.5245 122.806 25.7407C122.613 25.9456 122.453 26.1902 122.328 26.4748C122.214 26.7593 122.152 27.0665 122.14 27.3965H126.681ZM122.14 28.6768C122.14 29.0182 122.186 29.3483 122.277 29.6669C122.379 29.9856 122.527 30.2644 122.721 30.5034C122.914 30.7423 123.159 30.9358 123.455 31.0837C123.751 31.2203 124.103 31.2886 124.513 31.2886C125.082 31.2886 125.537 31.1691 125.879 30.9301C126.231 30.6797 126.493 30.3099 126.664 29.8205H128.507C128.405 30.2985 128.229 30.7253 127.978 31.1008C127.728 31.4764 127.426 31.795 127.074 32.0568C126.721 32.3071 126.322 32.4949 125.879 32.6201C125.446 32.7566 124.991 32.8249 124.513 32.8249C123.819 32.8249 123.204 32.7111 122.669 32.4835C122.135 32.2559 121.679 31.9373 121.304 31.5276C120.94 31.1179 120.661 30.6285 120.467 30.0595C120.285 29.4905 120.194 28.8646 120.194 28.1818C120.194 27.5559 120.291 26.9641 120.484 26.4065C120.689 25.8375 120.974 25.3424 121.338 24.9213C121.713 24.4889 122.163 24.1475 122.686 23.8971C123.21 23.6468 123.802 23.5216 124.462 23.5216C125.156 23.5216 125.776 23.6695 126.322 23.9654C126.88 24.2499 127.341 24.6312 127.705 25.1091C128.069 25.5871 128.331 26.139 128.49 26.7649C128.661 27.3795 128.707 28.0168 128.627 28.6768H122.14Z" fill="#143420"/>
</svg>
