<svg width="18" height="18" viewBox="0 0 18 18" fill="none" xmlns="http://www.w3.org/2000/svg">
<path d="M13.0447 11.773C15.1384 10.6028 16.7394 9.71122 16.8763 9.64157C17.3141 9.40475 17.7657 8.77787 16.8763 8.29029C16.5889 8.13706 15.0426 7.27335 13.0447 6.15889L10.2942 8.9729L13.0447 11.773Z" fill="#779472"/>
<path d="M10.2941 8.97289L1.50897 17.9861C1.71423 18.0139 1.94686 17.9582 2.22054 17.805C2.79527 17.4845 8.89837 14.0855 13.0446 11.773L10.2941 8.97289Z" fill="#567457"/>
<path d="M10.2942 8.97287L13.0447 6.15886C13.0447 6.15886 2.8364 0.489067 2.22062 0.15473C1.98799 0.0154228 1.72799 -0.0263693 1.49536 0.0154228L10.2942 8.97287Z" fill="#3B5A41"/>
<path d="M10.2942 8.97289L1.49534 0.0154486C1.13955 0.0990328 0.838501 0.41944 0.838501 1.07418C0.838501 2.11899 0.838501 16.0497 0.838501 16.9273C0.838501 17.5263 1.07113 17.9582 1.50902 18L10.2942 8.97289Z" fill="#143420"/>
</svg>
