<svg width="18" height="18" viewBox="0 0 18 18" fill="none" xmlns="http://www.w3.org/2000/svg">
<path d="M14.824 14.8277H12.2473V10.7902C12.2473 9.82738 12.2277 8.58835 10.9046 8.58835C9.56118 8.58835 9.356 9.63598 9.356 10.7191V14.8277H6.77935V6.525H9.2545V7.65673H9.28785C9.63368 7.00423 10.4747 6.31548 11.7311 6.31548C14.3418 6.31548 14.8247 8.03373 14.8247 10.2704V14.8277H14.824ZM3.8692 5.38893C3.0398 5.38893 2.37353 4.71758 2.37353 3.8918C2.37353 3.06675 3.04053 2.39613 3.8692 2.39613C4.6957 2.39613 5.3656 3.06675 5.3656 3.8918C5.3656 4.71758 4.69498 5.38893 3.8692 5.38893ZM5.16115 14.8277H2.57725V6.525H5.16115V14.8277ZM16.113 0H1.28385C0.574078 0 -0.00012207 0.56115 -0.00012207 1.25353V16.1465C-0.00012207 16.8396 0.574078 17.4 1.28385 17.4H16.1108C16.8199 17.4 17.3999 16.8396 17.3999 16.1465V1.25353C17.3999 0.56115 16.8199 0 16.1108 0H16.113Z" fill="#143420"/>
</svg>
