<svg width="174" height="40" viewBox="0 0 174 40" fill="none" xmlns="http://www.w3.org/2000/svg">
<path d="M33.7374 7.44535L23.9309 17.2519L23.9342 17.2553H37.8004V21.424H24.1195C28.4603 23.4092 31.4876 27.7931 31.4876 32.8716H27.3188C27.3188 29.3117 25.0955 26.2612 21.9655 25.0337H21.9755C20.8837 24.5143 19.8911 23.7202 19.7091 22.5325C19.6 21.8343 19.5305 20.984 19.5305 19.9286H18.2732C18.2732 20.984 18.2037 21.831 18.0946 22.5325C17.9093 23.7169 16.92 24.5143 15.8282 25.0337H15.8348C12.7048 26.2645 10.4815 29.3117 10.4815 32.8716H6.31274C6.31274 27.7931 9.33677 23.4092 13.6809 21.424H0V17.2553H13.8695L4.06292 7.44866L7.01085 4.50073L16.8141 14.304V0.437805H20.983V14.304L30.7895 4.49742L33.7374 7.44535Z" fill="#143420"/>
<path fill-rule="evenodd" clip-rule="evenodd" d="M58.3472 33.2201C56.4601 33.2201 54.8956 32.8081 53.6536 31.984C52.4235 31.148 51.486 29.9239 50.8411 28.3116L50.1962 28.5446C50.8411 30.3837 51.1815 31.8348 51.2173 32.8976H46.4163V7.8179H51.1636V12.9055C51.1636 13.8968 51.0859 14.8163 50.9307 15.6643C50.7874 16.5002 50.5366 17.4378 50.1783 18.4768L50.8232 18.7276C52.1489 15.4194 54.6568 13.7653 58.3472 13.7653C61.0581 13.7653 63.1123 14.5178 64.5095 16.0226C65.9188 17.5273 66.6235 19.7308 66.6235 22.6329V24.3526C66.6235 27.2547 65.9188 29.4582 64.5095 30.9629C63.1123 32.4677 61.0581 33.2201 58.3472 33.2201ZM56.6274 30.2285C58.3352 30.2285 59.631 29.7387 60.5147 28.7595C61.3985 27.7802 61.8404 26.3291 61.8404 24.4063V22.5612C61.8404 20.6385 61.3985 19.1933 60.5147 18.226C59.631 17.2467 58.3352 16.757 56.6274 16.757C54.8598 16.757 53.5044 17.2766 52.5609 18.3156C51.6293 19.3427 51.1636 20.8474 51.1636 22.83V24.1556C51.1636 26.1261 51.6293 27.6308 52.5609 28.6699C53.5044 29.7089 54.8598 30.2285 56.6274 30.2285Z" fill="#143420"/>
<path fill-rule="evenodd" clip-rule="evenodd" d="M89.263 27.8105C88.6659 29.59 87.5194 30.9515 85.8236 31.895C84.1397 32.8384 81.978 33.3101 79.3387 33.3101C76.0066 33.2982 73.4628 32.5339 71.7072 31.0171C69.9636 29.4885 69.0917 27.2552 69.0917 24.3173V22.6691C69.0917 20.7703 69.4919 19.152 70.2921 17.8145C71.0922 16.4649 72.2626 15.4438 73.8032 14.7512C75.3438 14.0465 77.2128 13.6942 79.4103 13.6942C81.4883 13.6942 83.2618 14.0226 84.7308 14.6794C86.1997 15.3244 87.3164 16.2619 88.0807 17.492C88.8451 18.7221 89.2273 20.1971 89.2273 21.9167C89.2273 22.8244 89.1674 23.7022 89.0481 24.5501H73.9107V24.6755C73.9107 26.5624 74.3883 27.9897 75.3438 28.9571C76.3111 29.9243 77.6666 30.408 79.4103 30.408C82.1333 30.408 83.8529 29.3391 84.5696 27.2014L89.263 27.8105ZM79.4282 16.5784C77.804 16.5784 76.5082 17.0203 75.5408 17.904C74.5854 18.7758 74.048 20.0298 73.9286 21.666H84.4799V21.1107C84.4799 19.7014 84.0321 18.5967 83.1364 17.7965C82.2407 16.9844 81.0047 16.5784 79.4282 16.5784Z" fill="#143420"/>
<path d="M91.8545 7.8179V32.8976H96.6017V23.9227C96.6017 22.5016 96.8227 21.2714 97.2646 20.2324C97.7064 19.1814 98.3394 18.3753 99.1634 17.814C99.9995 17.2407 100.991 16.9541 102.137 16.9541C103.439 16.9541 104.412 17.2766 105.057 17.9215C105.714 18.5663 106.042 19.5158 106.042 20.7698V32.8976H110.79V19.677C110.79 17.7423 110.222 16.2733 109.088 15.2702C107.965 14.267 106.329 13.7653 104.179 13.7653C102.257 13.7653 100.674 14.1834 99.4322 15.0193C98.2021 15.8434 97.1452 17.1571 96.2613 18.9605L95.5985 18.6918C95.9688 17.7603 96.2255 16.9242 96.3688 16.1838C96.5241 15.4433 96.6017 14.6611 96.6017 13.837V7.8179H91.8545Z" fill="#143420"/>
<path d="M112.219 36.0689L114.745 35.9076C115.557 35.8479 116.208 35.7464 116.698 35.6031C117.188 35.4717 117.569 35.2806 117.844 35.0299C118.119 34.779 118.334 34.4386 118.489 34.0087L118.955 32.8085L111.377 14.0883H116.322L119.761 23.6723C120.119 24.7232 120.43 25.7086 120.692 26.6281C120.955 27.5478 121.2 28.5509 121.427 29.6376H122.054C122.281 28.5389 122.52 27.5358 122.77 26.6281C123.033 25.7086 123.338 24.7232 123.685 23.6723L127.034 14.0883H131.817L125.386 30.8021C124.538 33.0592 123.612 34.779 122.609 35.9613C121.618 37.1437 120.37 37.9917 118.866 38.5052C117.372 39.0307 115.342 39.3829 112.775 39.5621L112.219 36.0689Z" fill="#143420"/>
<path d="M132.511 14.0883L139.855 32.898H145.66L152.987 14.0883H148.168L144.853 22.9916C144.508 24.0186 144.203 24.998 143.94 25.9295C143.677 26.861 143.427 27.8821 143.188 28.9928H142.543C142.089 26.9386 141.515 24.9383 140.824 22.9916L137.473 14.0883H132.511Z" fill="#143420"/>
<path fill-rule="evenodd" clip-rule="evenodd" d="M173.716 27.8105C173.119 29.59 171.974 30.9515 170.277 31.895C168.593 32.8384 166.431 33.3101 163.792 33.3101C160.46 33.2982 157.917 32.5339 156.161 31.0171C154.417 29.4885 153.545 27.2552 153.545 24.3173V22.6691C153.545 20.7703 153.945 19.152 154.745 17.8145C155.546 16.4649 156.716 15.4438 158.257 14.7512C159.797 14.0465 161.666 13.6942 163.864 13.6942C165.942 13.6942 167.716 14.0226 169.185 14.6794C170.653 15.3244 171.77 16.2619 172.535 17.492C173.298 18.7221 173.68 20.1971 173.68 21.9167C173.68 22.8244 173.621 23.7022 173.502 24.5501H158.364V24.6755C158.364 26.5624 158.842 27.9897 159.797 28.9571C160.765 29.9243 162.12 30.408 163.864 30.408C166.587 30.408 168.307 29.3391 169.024 27.2014L173.716 27.8105ZM163.882 16.5784C162.257 16.5784 160.962 17.0203 159.995 17.904C159.039 18.7758 158.501 20.0298 158.382 21.666H168.933V21.1107C168.933 19.7014 168.486 18.5967 167.59 17.7965C166.694 16.9844 165.459 16.5784 163.882 16.5784Z" fill="#143420"/>
</svg>
