<svg width="14" height="15" viewBox="0 0 14 15" fill="none" xmlns="http://www.w3.org/2000/svg">
<g clip-path="url(#clip0_542_133)">
<path fill-rule="evenodd" clip-rule="evenodd" d="M10.9857 9.45618C11.8437 9.93304 12.7023 10.4099 13.5604 10.8868C13.9295 11.0919 14.092 11.5272 13.9465 11.9237C13.2082 13.9405 11.0458 15.0054 9.01148 14.2627C4.84592 12.7424 1.7578 9.65416 0.236843 5.48804C-0.505815 3.4537 0.558955 1.29126 2.57582 0.553042C2.97285 0.407568 3.40762 0.569449 3.61325 0.939135C4.08957 1.79718 4.56645 2.65581 5.04335 3.51388C5.26703 3.91638 5.21453 4.39435 4.90827 4.73778C4.50741 5.18842 4.1071 5.63958 3.70625 6.08965C4.56156 8.17215 6.32635 9.93741 8.40885 10.7923C8.85892 10.3914 9.3101 9.99107 9.76072 9.59023C10.1052 9.28452 10.5821 9.23202 10.9846 9.45515L10.9857 9.45618Z" fill="#143420"/>
</g>
<defs>
<clipPath id="clip0_542_133">
<rect width="14" height="14" fill="white" transform="translate(0 0.5)"/>
</clipPath>
</defs>
</svg>
