<svg width="20" height="14" viewBox="0 0 20 14" fill="none" xmlns="http://www.w3.org/2000/svg">
<path d="M19.5866 2.13087C19.4718 1.7208 19.2529 1.34719 18.9511 1.04614C18.6492 0.745097 18.2745 0.526802 17.8633 0.412357C16.32 1.18228e-05 10.1088 1.16754e-05 10.1088 1.16754e-05C10.1088 1.16754e-05 3.91318 -0.00821862 2.35418 0.412357C1.94298 0.526802 1.56834 0.745097 1.26647 1.04614C0.964594 1.34719 0.745699 1.7208 0.630939 2.13087C0.338385 3.7066 0.194155 5.30615 0.200129 6.90865C0.195284 8.5051 0.33951 10.0985 0.630939 11.6683C0.745699 12.0784 0.964594 12.452 1.26647 12.753C1.56834 13.0541 1.94298 13.2724 2.35418 13.3868C3.89585 13.8 10.1088 13.8 10.1088 13.8C10.1088 13.8 16.3035 13.8 17.8633 13.3868C18.2745 13.2724 18.6492 13.0541 18.9511 12.753C19.2529 12.452 19.4718 12.0784 19.5866 11.6683C19.8719 10.098 20.0101 8.50454 19.9992 6.90865C20.0112 5.30672 19.873 3.70717 19.5866 2.13087ZM8.12637 9.8642L8.12637 3.94404L13.2961 6.90865L8.12637 9.8642Z" fill="#143420"/>
</svg>
